<svg width="95" height="95" viewBox="0 0 95 95" fill="none" xmlns="http://www.w3.org/2000/svg">
<g clip-path="url(#clip0_44_609)">
<path d="M32.6016 37.8281C35.0625 37.8281 37.0156 35.8359 37.0156 33.4141C37.0156 30.9531 35.0625 29 32.6016 29C30.1797 29 28.1875 30.9531 28.1875 33.4141C28.1875 35.8359 30.1797 37.8281 32.6016 37.8281Z" fill="#005B41" stroke="#005B41" stroke-width="0.5"/>
<path d="M35.4531 75.6406C28.2266 75.6406 22.3672 69.7812 22.3672 62.5547C22.3672 58.5703 24.1641 55.0547 26.9766 52.6328L26.7422 48.5312C22.0547 51.4609 18.9297 56.6172 18.9297 62.5156C18.9297 71.6563 26.3516 79.0781 35.4922 79.0781C42.2109 79.0781 47.9922 75.0156 50.5703 69.2344L48.2266 65.2109C46.9375 71.1875 41.7422 75.6406 35.4531 75.6406Z" fill="#005B41" stroke="#005B41" stroke-width="0.5"/>
<path d="M61.4687 67.8672H58.4219L50.9609 55.0156C50.4922 54.2344 49.6719 53.8047 48.8125 53.7656H37.7969L37.6797 50.4453H45.6875C46.7812 50.3672 47.6797 49.5469 47.6797 48.4531C47.6797 47.3594 46.8203 46.5 45.6875 46.4609H37.4844L37.2109 42.6719C37.0547 40.3672 35.0625 38.5312 32.7187 38.6875C30.375 38.8047 28.5781 40.8359 28.6953 43.1797L29.4766 56.5781C29.6719 58.9219 31.6641 60.6016 33.9687 60.6016H48.2656L54.125 70.7187C54.5937 71.5 55.4922 71.9297 56.3906 71.9297V71.9687H61.5078C62.6016 71.8906 63.5 71.0703 63.5 69.9766C63.4609 68.7266 62.6016 67.9062 61.4687 67.8672Z" fill="#005B41" stroke="#005B41" stroke-width="0.5"/>
</g>
<g clip-path="url(#clip1_44_609)">
<g clip-path="url(#clip2_44_609)">
<path d="M84.0064 53.395H78.0406C77.7253 53.395 77.4697 53.1429 77.4697 52.832V48.9846H51.5307V52.832C51.5307 53.1429 51.2751 53.395 50.9598 53.395H44.994C44.6787 53.395 44.4231 53.1429 44.4231 52.832V33.5085C44.4231 32.0795 45.602 30.9168 47.0512 30.9168H50.3889V18.7684C50.3889 18.4575 50.6445 18.2054 50.9598 18.2054H78.0408C78.3561 18.2054 78.6117 18.4575 78.6117 18.7684V30.9168H81.9494C83.3984 30.9168 84.5775 32.0795 84.5775 33.5085V52.832C84.5773 53.1429 84.3217 53.395 84.0064 53.395ZM78.6115 52.2689H83.4355V33.5085C83.4355 32.7003 82.7689 32.0429 81.9492 32.0429H78.6115V52.2689ZM45.5649 52.2689H50.3889V32.0429H47.0512C46.2315 32.0429 45.5649 32.7003 45.5649 33.5085V52.2689ZM65.0711 47.8585H77.4697V45.0433H75.6936C75.3783 45.0433 75.1227 44.7913 75.1227 44.4803C75.1227 44.1693 75.3783 43.9173 75.6936 43.9173H77.4697V34.158H75.6936C75.3783 34.158 75.1227 33.906 75.1227 33.595C75.1227 33.284 75.3783 33.0319 75.6936 33.0319H77.4697V19.3315H65.0711V47.8585ZM51.5307 47.8585H63.9293V19.3315H51.5307V33.0319H53.3068C53.6221 33.0319 53.8777 33.284 53.8777 33.595C53.8777 33.906 53.6221 34.158 53.3068 34.158H51.5307V43.9173H53.3068C53.6221 43.9173 53.8777 44.1693 53.8777 44.4803C53.8777 44.7913 53.6221 45.0433 53.3068 45.0433H51.5307V47.8585ZM81.0234 37.8093C80.7081 37.8093 80.4525 37.5572 80.4525 37.2463V34.9547L80.0664 35.3355C79.8437 35.5555 79.4822 35.5553 79.2591 35.3355C79.0361 35.1157 79.0361 34.7591 79.2591 34.5392L80.6198 33.1971C80.8424 32.9771 81.204 32.9773 81.4271 33.1971L82.7881 34.5392C83.0111 34.759 83.0111 35.1155 82.7881 35.3355C82.5654 35.5555 82.2039 35.5553 81.9808 35.3355L81.5943 34.9543V37.2463C81.5943 37.557 81.3388 37.8093 81.0234 37.8093ZM47.977 37.8093C47.6617 37.8093 47.4061 37.5572 47.4061 37.2463V34.9543L47.0196 35.3355C46.7965 35.5553 46.435 35.5553 46.2123 35.3355C45.9893 35.1157 45.9893 34.7591 46.2123 34.5392L47.5734 33.1971C47.7964 32.9773 48.158 32.9773 48.3806 33.1971L49.7413 34.5392C49.9643 34.759 49.9643 35.1155 49.7413 35.3355C49.5183 35.5553 49.1567 35.5553 48.934 35.3355L48.5479 34.9547V37.2463C48.5479 37.557 48.2923 37.8093 47.977 37.8093ZM66.3439 36.2095C66.2453 36.2095 66.1467 36.1844 66.0584 36.1341C65.8818 36.0335 65.773 35.8477 65.773 35.6465V31.5435C65.773 31.3423 65.8818 31.1565 66.0584 31.0559C66.235 30.9553 66.4527 30.9553 66.6293 31.0559L70.2325 33.1074C70.4091 33.208 70.518 33.3938 70.518 33.595C70.518 33.7962 70.4091 33.982 70.2325 34.0826L66.6293 36.1341C66.5412 36.1844 66.4424 36.2095 66.3439 36.2095ZM66.9148 32.5186V34.6713L68.8052 33.595L66.9148 32.5186ZM62.6566 36.2095C62.558 36.2095 62.4594 36.1844 62.3711 36.1341L58.7679 34.0826C58.5913 33.982 58.4825 33.7962 58.4825 33.595C58.4825 33.3938 58.5913 33.208 58.7679 33.1074L62.3711 31.0559C62.5477 30.9553 62.7654 30.9553 62.942 31.0559C63.1186 31.1565 63.2275 31.3423 63.2275 31.5435V35.6465C63.2275 35.8477 63.1186 36.0335 62.942 36.1341C62.8537 36.1844 62.7549 36.2095 62.6566 36.2095ZM60.1952 33.595L62.0857 34.6713V32.5186L60.1952 33.595Z" fill="#005B41" stroke="#005B41" stroke-width="0.512005"/>
</g>
</g>
<circle cx="47.5" cy="47.5" r="46" stroke="#005B41" stroke-width="3"/>
<defs>
<clipPath id="clip0_44_609">
<rect width="50" height="50" fill="white" transform="translate(16 29)"/>
</clipPath>
<clipPath id="clip1_44_609">
<rect width="36" height="32" fill="white" transform="translate(45 17)"/>
</clipPath>
<clipPath id="clip2_44_609">
<rect width="29" height="33" fill="white" transform="translate(50 16)"/>
</clipPath>
</defs>
</svg>
