<svg width="95" height="95" viewBox="0 0 95 95" fill="none" xmlns="http://www.w3.org/2000/svg">
<g clip-path="url(#clip0_44_497)">
<path d="M32.6016 37.8281C35.0625 37.8281 37.0156 35.8359 37.0156 33.4141C37.0156 30.9531 35.0625 29 32.6016 29C30.1797 29 28.1875 30.9531 28.1875 33.4141C28.1875 35.8359 30.1797 37.8281 32.6016 37.8281Z" fill="#005B41" stroke="#005B41" stroke-width="0.5"/>
<path d="M35.4531 75.6406C28.2266 75.6406 22.3672 69.7812 22.3672 62.5547C22.3672 58.5703 24.1641 55.0547 26.9766 52.6328L26.7422 48.5312C22.0547 51.4609 18.9297 56.6172 18.9297 62.5156C18.9297 71.6563 26.3516 79.0781 35.4922 79.0781C42.2109 79.0781 47.9922 75.0156 50.5703 69.2344L48.2266 65.2109C46.9375 71.1875 41.7422 75.6406 35.4531 75.6406Z" fill="#005B41" stroke="#005B41" stroke-width="0.5"/>
<path d="M61.4687 67.8672H58.4219L50.9609 55.0156C50.4922 54.2344 49.6719 53.8047 48.8125 53.7656H37.7969L37.6797 50.4453H45.6875C46.7812 50.3672 47.6797 49.5469 47.6797 48.4531C47.6797 47.3594 46.8203 46.5 45.6875 46.4609H37.4844L37.2109 42.6719C37.0547 40.3672 35.0625 38.5313 32.7187 38.6875C30.375 38.8047 28.5781 40.8359 28.6953 43.1797L29.4766 56.5781C29.6719 58.9219 31.6641 60.6016 33.9687 60.6016H48.2656L54.125 70.7188C54.5937 71.5 55.4922 71.9297 56.3906 71.9297V71.9688H61.5078C62.6016 71.8906 63.5 71.0703 63.5 69.9766C63.4609 68.7266 62.6016 67.9063 61.4687 67.8672Z" fill="#005B41" stroke="#005B41" stroke-width="0.5"/>
</g>
<circle cx="47.5" cy="47.5" r="46" stroke="#005B41" stroke-width="3"/>
<path d="M55.9722 48V23.352C56.2582 23.274 57.2722 23.17 59.0142 23.04C60.7822 22.91 62.1342 22.845 63.0702 22.845C69.4402 22.845 72.6252 25.432 72.6252 30.606C72.6252 33.934 71.4942 36.352 69.2322 37.86C67.7762 38.822 66.0992 39.303 64.2012 39.303C63.7852 39.303 63.2262 39.264 62.5242 39.186C61.8482 39.108 61.4972 39.043 61.4712 38.991V48H55.9722ZM61.4712 34.545C62.1212 34.831 62.9012 34.974 63.8112 34.974C64.7212 34.974 65.4492 34.61 65.9952 33.882C66.5672 33.154 66.8532 32.192 66.8532 30.996C66.8532 28.5 65.8262 27.252 63.7722 27.252C62.3942 27.252 61.6272 27.343 61.4712 27.525V34.545Z" fill="#005B41"/>
<defs>
<clipPath id="clip0_44_497">
<rect width="50" height="50" fill="white" transform="translate(16 29)"/>
</clipPath>
</defs>
</svg>
