<svg width="95" height="95" viewBox="0 0 95 95" fill="none" xmlns="http://www.w3.org/2000/svg">
<g clip-path="url(#clip0_44_495)">
<path d="M32.6016 37.8281C35.0625 37.8281 37.0156 35.8359 37.0156 33.4141C37.0156 30.9531 35.0625 29 32.6016 29C30.1797 29 28.1875 30.9531 28.1875 33.4141C28.1875 35.8359 30.1797 37.8281 32.6016 37.8281Z" fill="#005B41" stroke="#005B41" stroke-width="0.5"/>
<path d="M35.4531 75.6406C28.2266 75.6406 22.3672 69.7812 22.3672 62.5547C22.3672 58.5703 24.1641 55.0547 26.9766 52.6328L26.7422 48.5312C22.0547 51.4609 18.9297 56.6172 18.9297 62.5156C18.9297 71.6563 26.3516 79.0781 35.4922 79.0781C42.2109 79.0781 47.9922 75.0156 50.5703 69.2344L48.2266 65.2109C46.9375 71.1875 41.7422 75.6406 35.4531 75.6406Z" fill="#005B41" stroke="#005B41" stroke-width="0.5"/>
<path d="M61.4687 67.8672H58.4219L50.9609 55.0156C50.4922 54.2344 49.6719 53.8047 48.8125 53.7656H37.7969L37.6797 50.4453H45.6875C46.7812 50.3672 47.6797 49.5469 47.6797 48.4531C47.6797 47.3594 46.8203 46.5 45.6875 46.4609H37.4844L37.2109 42.6719C37.0547 40.3672 35.0625 38.5313 32.7187 38.6875C30.375 38.8047 28.5781 40.8359 28.6953 43.1797L29.4766 56.5781C29.6719 58.9219 31.6641 60.6016 33.9687 60.6016H48.2656L54.125 70.7188C54.5937 71.5 55.4922 71.9297 56.3906 71.9297V71.9688H61.5078C62.6016 71.8906 63.5 71.0703 63.5 69.9766C63.4609 68.7266 62.6016 67.9063 61.4687 67.8672Z" fill="#005B41" stroke="#005B41" stroke-width="0.5"/>
</g>
<g clip-path="url(#clip1_44_495)">
<path d="M55.7 21L53.5 33.1C53.1779 34.871 57.4193 35.6982 57.35 37.5L56.8 51.8C56.7155 53.9985 59 54 59 54C59 54 61.2845 53.9985 61.2 51.8L60.65 37.5C60.5809 35.7013 64.4635 34.9022 64.5 33.1L62.3 21H61.2L61.75 29.8L60.1 30.9L59.55 21H58.45L57.9 30.9L56.25 29.8L56.8 21H55.7ZM74.4 21C72.7799 21 70.0788 22.4408 68.9988 24.6007C68.0988 26.2208 67.8 29.84 67.8 32V37.5C67.8 39.3 70.2 39.7 71.1 39.7L70 51.8C69.8009 53.991 72.2 54 72.2 54C72.2 54 74.4 54 74.4 51.8V21Z" fill="#005B41" stroke="#005B41" stroke-width="0.00064"/>
</g>
<circle cx="47.5" cy="47.5" r="46" stroke="#005B41" stroke-width="3"/>
<defs>
<clipPath id="clip0_44_495">
<rect width="50" height="50" fill="white" transform="translate(16 29)"/>
</clipPath>
<clipPath id="clip1_44_495">
<rect width="33" height="33" fill="white" transform="translate(48 21)"/>
</clipPath>
</defs>
</svg>
