<svg width="52" height="52" viewBox="0 0 51 79" fill="none" xmlns="http://www.w3.org/2000/svg">
<path d="M35.0102 4.02832H15.9901C9.37874 4.02832 4 9.42021 4 16.0461V35.1082C4 40.1738 7.14847 44.5075 11.5824 46.2727L25.4993 72.2954L39.4176 46.2727C43.853 44.5075 47 40.1738 47 35.1082V16.0461C47.0001 9.42021 41.6228 4.02832 35.0102 4.02832ZM42.8667 35.1082C42.8667 39.4474 39.3426 42.9806 35.0116 42.9806H15.9914C11.659 42.9806 8.1363 39.4487 8.1363 35.1082V16.0461C8.1363 11.7055 11.6604 8.17231 15.9914 8.17231H35.01C39.3424 8.17231 42.8651 11.7056 42.8651 16.0461L42.8667 35.1082Z" fill="#005B41" stroke="#005B41" strokeWidth="6.15386"/>
<rect x="7.5686" y="8.20995" width="35.4206" height="35.2769" fill="#005B41"/>
<path d="M14 37.9629V35.335H35.3333V37.9629H14ZM19.3333 32.707C17.8667 32.707 16.6111 32.1924 15.5667 31.1631C14.5222 30.1338 14 28.8965 14 27.4512V14.3115H35.3333C36.0667 14.3115 36.6944 14.5688 37.2167 15.0835C37.7389 15.5981 38 16.2168 38 16.9395V20.8813C38 21.604 37.7389 22.2227 37.2167 22.7373C36.6944 23.252 36.0667 23.5093 35.3333 23.5093H32.6667V27.4512C32.6667 28.8965 32.1444 30.1338 31.1 31.1631C30.0556 32.1924 28.8 32.707 27.3333 32.707H19.3333ZM32.6667 20.8813H35.3333V16.9395H32.6667V20.8813Z" fill="white"/>
</svg>
