<svg width="33" height="50" viewBox="0 0 33 50" fill="none" xmlns="http://www.w3.org/2000/svg">
<path d="M22.0292 4H10.971C7.12717 4 4 7.08632 4 10.879V21.7902C4 24.6897 5.8305 27.1703 8.40836 28.1808L16.4996 43.0762L24.5916 28.1808C27.1703 27.1703 29 24.6897 29 21.7902V10.879C29.0001 7.08632 25.8737 4 22.0292 4ZM26.5969 21.7902C26.5969 24.2739 24.548 26.2963 22.03 26.2963H10.9717C8.4529 26.2963 6.40482 24.2747 6.40482 21.7902V10.879C6.40482 8.39442 8.45373 6.37203 10.9717 6.37203H22.0291C24.5479 6.37203 26.596 8.39451 26.596 10.879L26.5969 21.7902Z" fill="#005B41" stroke="#005B41" stroke-width="6.15386"/>
<rect x="6.07471" y="6.39355" width="20.5934" height="20.1925" fill="#005B41"/>
<g clip-path="url(#clip0_360_63)">
<path d="M11.2 7L10 13.6C9.82432 14.566 12.1378 15.0172 12.1 16L11.8 23.8C11.7539 24.9992 13 25 13 25C13 25 14.2461 24.9992 14.2 23.8L13.9 16C13.8623 15.0189 15.9801 14.583 16 13.6L14.8 7H14.2L14.5 11.8L13.6 12.4L13.3 7H12.7L12.4 12.4L11.5 11.8L11.8 7H11.2ZM21.4 7C20.5163 7 19.043 7.78588 18.4539 8.96404C17.963 9.84772 17.8 11.8218 17.8 13V16C17.8 16.9818 19.1091 17.2 19.6 17.2L19 23.8C18.8914 24.9951 20.2 25 20.2 25C20.2 25 21.4 25 21.4 23.8V7Z" fill="white"/>
</g>
<defs>
<clipPath id="clip0_360_63">
<rect width="18" height="18" fill="white" transform="translate(7 7)"/>
</clipPath>
</defs>
</svg>
