<svg width="52" height="52" viewBox="0 0 51 79" fill="none" xmlns="http://www.w3.org/2000/svg">
<path d="M35.0102 4.05664H15.9901C9.37874 4.05664 4 9.44853 4 16.0745V35.1365C4 40.2022 7.14847 44.5358 11.5824 46.301L25.4993 72.3237L39.4176 46.301C43.853 44.5358 47 40.2022 47 35.1365V16.0745C47.0001 9.44853 41.6228 4.05664 35.0102 4.05664ZM42.8667 35.1365C42.8667 39.4757 39.3426 43.0089 35.0116 43.0089H15.9914C11.659 43.0089 8.1363 39.477 8.1363 35.1365V16.0745C8.1363 11.7338 11.6604 8.20063 15.9914 8.20063H35.01C39.3424 8.20063 42.8651 11.734 42.8651 16.0745L42.8667 35.1365Z" fill="#005B41" stroke="#005B41" stroke-width="6.15386"/>
<rect x="7.5686" y="8.23825" width="35.4206" height="35.2769" fill="#005B41"/>
<path d="M25.5 39.0195C23.7708 39.0195 22.1458 38.6821 20.625 38.0073C19.1042 37.3324 17.7812 36.4166 16.6562 35.2597C15.5312 34.1029 14.6406 32.7425 13.9844 31.1786C13.3281 29.6147 13 27.9437 13 26.1655C13 24.3874 13.3281 22.7164 13.9844 21.1525C14.6406 19.5886 15.5312 18.2282 16.6562 17.0713C17.7812 15.9145 19.1042 14.9986 20.625 14.3238C22.1458 13.6489 23.7708 13.3115 25.5 13.3115C27.2292 13.3115 28.8542 13.6489 30.375 14.3238C31.8958 14.9986 33.2188 15.9145 34.3438 17.0713C35.4688 18.2282 36.3594 19.5886 37.0156 21.1525C37.6719 22.7164 38 24.3874 38 26.1655C38 27.9437 37.6719 29.6147 37.0156 31.1786C36.3594 32.7425 35.4688 34.1029 34.3438 35.2597C33.2188 36.4166 31.8958 37.3324 30.375 38.0073C28.8542 38.6821 27.2292 39.0195 25.5 39.0195Z" fill="white"/>
</svg>
