<svg width="52" height="52" viewBox="0 0 51 79" fill="none" xmlns="http://www.w3.org/2000/svg">
<path d="M35.0102 4H15.9901C9.37874 4 4 9.39189 4 16.0178V35.0799C4 40.1455 7.14847 44.4792 11.5824 46.2444L25.4993 72.2671L39.4176 46.2444C43.853 44.4792 47 40.1455 47 35.0799V16.0178C47.0001 9.39189 41.6228 4 35.0102 4ZM42.8667 35.0799C42.8667 39.4191 39.3426 42.9523 35.0116 42.9523H15.9914C11.659 42.9523 8.1363 39.4204 8.1363 35.0799V16.0178C8.1363 11.6772 11.6604 8.14399 15.9914 8.14399H35.01C39.3424 8.14399 42.8651 11.6773 42.8651 16.0178L42.8667 35.0799Z" fill="#B71F1F" stroke="#B71F1F" strokeWidth="6.15386"/>
<rect x="7.5686" y="8.18161" width="35.4206" height="35.2769" fill="#B71F1F"/>
<path d="M25.585 40.8351C25.4123 40.9553 25.2085 41.0195 25 41.0195C24.7915 41.0195 24.5877 40.9553 24.415 40.8351C21.646 38.9322 10 30.4642 10 22.4745C10 12.1654 21.775 10.514 25 17.4589C28.225 10.514 40 12.1654 40 22.4745C40 30.4657 28.354 38.9322 25.585 40.832V40.8351Z" fill="white"/>
</svg>
