<svg width="52" height="52" viewBox="0 0 51 79" fill="none" xmlns="http://www.w3.org/2000/svg">
<path d="M35.0102 4.02832H15.9901C9.37874 4.02832 4 9.42021 4 16.0461V35.1082C4 40.1738 7.14847 44.5075 11.5824 46.2727L25.4993 72.2954L39.4176 46.2727C43.853 44.5075 47 40.1738 47 35.1082V16.0461C47.0001 9.42021 41.6228 4.02832 35.0102 4.02832ZM42.8667 35.1082C42.8667 39.4474 39.3426 42.9806 35.0116 42.9806H15.9914C11.659 42.9806 8.1363 39.4487 8.1363 35.1082V16.0461C8.1363 11.7055 11.6604 8.17231 15.9914 8.17231H35.01C39.3424 8.17231 42.8651 11.7056 42.8651 16.0461L42.8667 35.1082Z" fill="#005B41" stroke="#005B41" stroke-width="6.15386"/>
<rect x="7.5686" y="8.20993" width="35.4206" height="35.2769" fill="#005B41"/>
<path d="M12 36.9346V15.3398H14.5455V29.7363H24.7273V18.2191H34.9091C36.3091 18.2191 37.5076 18.783 38.5045 19.9107C39.5015 21.0385 40 22.3941 40 23.9777V36.9346H37.4545V32.6156H14.5455V36.9346H12ZM19.6364 28.2967C18.5758 28.2967 17.6742 27.8768 16.9318 27.037C16.1894 26.1972 15.8182 25.1774 15.8182 23.9777C15.8182 22.778 16.1894 21.7583 16.9318 20.9185C17.6742 20.0787 18.5758 19.6588 19.6364 19.6588C20.697 19.6588 21.5985 20.0787 22.3409 20.9185C23.0833 21.7583 23.4545 22.778 23.4545 23.9777C23.4545 25.1774 23.0833 26.1972 22.3409 27.037C21.5985 27.8768 20.697 28.2967 19.6364 28.2967ZM27.2727 29.7363H37.4545V23.9777C37.4545 23.1859 37.2053 22.5081 36.7068 21.9442C36.2083 21.3804 35.6091 21.0984 34.9091 21.0984H27.2727V29.7363ZM19.6364 25.4174C19.997 25.4174 20.2992 25.2794 20.5432 25.0035C20.7871 24.7276 20.9091 24.3856 20.9091 23.9777C20.9091 23.5698 20.7871 23.2279 20.5432 22.952C20.2992 22.6761 19.997 22.5381 19.6364 22.5381C19.2758 22.5381 18.9735 22.6761 18.7295 22.952C18.4856 23.2279 18.3636 23.5698 18.3636 23.9777C18.3636 24.3856 18.4856 24.7276 18.7295 25.0035C18.9735 25.2794 19.2758 25.4174 19.6364 25.4174ZM19.6364 25.4174C19.2758 25.4174 18.9735 25.2794 18.7295 25.0035C18.4856 24.7276 18.3636 24.3856 18.3636 23.9777C18.3636 23.5698 18.4856 23.2279 18.7295 22.952C18.9735 22.6761 19.2758 22.5381 19.6364 22.5381C19.997 22.5381 20.2992 22.6761 20.5432 22.952C20.7871 23.2279 20.9091 23.5698 20.9091 23.9777C20.9091 24.3856 20.7871 24.7276 20.5432 25.0035C20.2992 25.2794 19.997 25.4174 19.6364 25.4174ZM27.2727 21.0984H34.9091C35.6091 21.0984 36.2083 21.3804 36.7068 21.9442C37.2053 22.5081 37.4545 23.1859 37.4545 23.9777V29.7363H27.2727V21.0984Z" fill="white"/>
</svg>
