<svg width="52" height="52" viewBox="0 0 51 79" fill="none" xmlns="http://www.w3.org/2000/svg">
<path d="M35.0102 4.02832H15.9901C9.37874 4.02832 4 9.42021 4 16.0461V35.1082C4 40.1738 7.14847 44.5075 11.5824 46.2727L25.4993 72.2954L39.4176 46.2727C43.853 44.5075 47 40.1738 47 35.1082V16.0461C47.0001 9.42021 41.6228 4.02832 35.0102 4.02832ZM42.8667 35.1082C42.8667 39.4474 39.3426 42.9806 35.0116 42.9806H15.9914C11.659 42.9806 8.1363 39.4487 8.1363 35.1082V16.0461C8.1363 11.7055 11.6604 8.17231 15.9914 8.17231H35.01C39.3424 8.17231 42.8651 11.7056 42.8651 16.0461L42.8667 35.1082Z" fill="#005B41" stroke="#005B41" stroke-width="6.15386"/>
<rect x="7.5686" y="8.20993" width="35.4206" height="35.2769" fill="#005B41"/>
<path d="M28.6 38.9912H23.4V33.8496H14L19.3333 26.1372H16.6667L26 13.2832L35.3333 26.1372H32.6667L38 33.8496H28.6V38.9912Z" fill="white"/>
</svg>
