<svg width="52" height="52" viewBox="0 0 51 79" fill="none" xmlns="http://www.w3.org/2000/svg">
<path d="M35.0102 4.02832H15.9901C9.37874 4.02832 4 9.42021 4 16.0461V35.1082C4 40.1738 7.14847 44.5075 11.5824 46.2727L25.4993 72.2954L39.4176 46.2727C43.853 44.5075 47 40.1738 47 35.1082V16.0461C47.0001 9.42021 41.6228 4.02832 35.0102 4.02832ZM42.8667 35.1082C42.8667 39.4474 39.3426 42.9806 35.0116 42.9806H15.9914C11.659 42.9806 8.1363 39.4487 8.1363 35.1082V16.0461C8.1363 11.7055 11.6604 8.17231 15.9914 8.17231H35.01C39.3424 8.17231 42.8651 11.7056 42.8651 16.0461L42.8667 35.1082Z" fill="#005B41" stroke="#005B41" strokeWidth="6.15386"/>
<rect x="7.5686" y="8.20993" width="35.4206" height="35.2769" fill="#005B41"/>
<path d="M16.6667 38.9912C15.9333 38.9912 15.3056 38.7515 14.7833 38.272C14.2611 37.7925 14 37.2161 14 36.5428V21.8525C14 21.1792 14.2611 20.6028 14.7833 20.1234C15.3056 19.6439 15.9333 19.4042 16.6667 19.4042H19.3333C19.3333 17.7107 19.9833 16.2672 21.2833 15.0736C22.5833 13.88 24.1556 13.2832 26 13.2832C27.8444 13.2832 29.4167 13.88 30.7167 15.0736C32.0167 16.2672 32.6667 17.7107 32.6667 19.4042H35.3333C36.0667 19.4042 36.6944 19.6439 37.2167 20.1234C37.7389 20.6028 38 21.1792 38 21.8525V36.5428C38 37.2161 37.7389 37.7925 37.2167 38.272C36.6944 38.7515 36.0667 38.9912 35.3333 38.9912H16.6667ZM26 29.1977C27.8444 29.1977 29.4167 28.6009 30.7167 27.4073C32.0167 26.2137 32.6667 24.7702 32.6667 23.0767H30C30 24.0969 29.6111 24.964 28.8333 25.6781C28.0556 26.3922 27.1111 26.7493 26 26.7493C24.8889 26.7493 23.9444 26.3922 23.1667 25.6781C22.3889 24.964 22 24.0969 22 23.0767H19.3333C19.3333 24.7702 19.9833 26.2137 21.2833 27.4073C22.5833 28.6009 24.1556 29.1977 26 29.1977ZM22 19.4042H30C30 18.384 29.6111 17.5169 28.8333 16.8028C28.0556 16.0886 27.1111 15.7316 26 15.7316C24.8889 15.7316 23.9444 16.0886 23.1667 16.8028C22.3889 17.5169 22 18.384 22 19.4042Z" fill="white"/>
</svg>
