<svg width="95" height="95" viewBox="0 0 95 95" fill="none" xmlns="http://www.w3.org/2000/svg">
<g clip-path="url(#clip0_44_490)">
<path d="M32.6016 37.8281C35.0625 37.8281 37.0156 35.8359 37.0156 33.4141C37.0156 30.9531 35.0625 29 32.6016 29C30.1797 29 28.1875 30.9531 28.1875 33.4141C28.1875 35.8359 30.1797 37.8281 32.6016 37.8281Z" fill="#005B41" stroke="#005B41" stroke-width="0.5"/>
<path d="M35.4531 75.6406C28.2266 75.6406 22.3672 69.7812 22.3672 62.5547C22.3672 58.5703 24.1641 55.0547 26.9766 52.6328L26.7422 48.5312C22.0547 51.4609 18.9297 56.6172 18.9297 62.5156C18.9297 71.6563 26.3516 79.0781 35.4922 79.0781C42.2109 79.0781 47.9922 75.0156 50.5703 69.2344L48.2266 65.2109C46.9375 71.1875 41.7422 75.6406 35.4531 75.6406Z" fill="#005B41" stroke="#005B41" stroke-width="0.5"/>
<path d="M61.4687 67.8672H58.4219L50.9609 55.0156C50.4922 54.2344 49.6719 53.8047 48.8125 53.7656H37.7969L37.6797 50.4453H45.6875C46.7812 50.3672 47.6797 49.5469 47.6797 48.4531C47.6797 47.3594 46.8203 46.5 45.6875 46.4609H37.4844L37.2109 42.6719C37.0547 40.3672 35.0625 38.5312 32.7187 38.6875C30.375 38.8047 28.5781 40.8359 28.6953 43.1797L29.4766 56.5781C29.6719 58.9219 31.6641 60.6016 33.9687 60.6016H48.2656L54.125 70.7187C54.5937 71.5 55.4922 71.9297 56.3906 71.9297V71.9687H61.5078C62.6016 71.8906 63.5 71.0703 63.5 69.9766C63.4609 68.7266 62.6016 67.9062 61.4687 67.8672Z" fill="#005B41" stroke="#005B41" stroke-width="0.5"/>
</g>
<g clip-path="url(#clip1_44_490)">
<path d="M72 15H54C53.1716 15 52.5 15.6716 52.5 16.5V49.5C52.5 50.3284 53.1716 50.9999 54 50.9999H72C72.8284 50.9999 73.5 50.3284 73.5 49.5V16.5C73.5 15.6716 72.8284 15 72 15ZM70.5 48H55.5V18H70.4999V48H70.5Z" fill="#005B41" stroke="#005B41" stroke-width="0.125"/>
<path d="M58.5 31.5H67.5C68.6151 31.5 69.3403 30.3266 68.8416 29.3292L64.3416 20.3292C63.7888 19.2236 62.2111 19.2236 61.6583 20.3292L57.1583 29.3292C56.6597 30.3265 57.3849 31.5 58.5 31.5ZM63 24.3541L65.0729 28.5H60.927L63 24.3541Z" fill="#005B41" stroke="#005B41" stroke-width="0.125"/>
<path d="M61.6583 45.6708C62.2111 46.7764 63.7888 46.7764 64.3416 45.6708L68.8416 36.6708C69.3403 35.6734 68.6151 34.5 67.5 34.5H58.5C57.3849 34.5 56.6597 35.6734 57.1583 36.6708L61.6583 45.6708ZM65.0729 37.5L63 41.6459L60.927 37.5H65.0729Z" fill="#005B41" stroke="#005B41" stroke-width="0.125"/>
</g>
<circle cx="47.5" cy="47.5" r="46" stroke="#005B41" stroke-width="3"/>
<defs>
<clipPath id="clip0_44_490">
<rect width="50" height="50" fill="white" transform="translate(16 29)"/>
</clipPath>
<clipPath id="clip1_44_490">
<rect width="36" height="36" fill="white" transform="translate(45 15)"/>
</clipPath>
</defs>
</svg>
