<svg width="95" height="95" viewBox="0 0 95 95" fill="none" xmlns="http://www.w3.org/2000/svg">
<path d="M52.5407 17.2999C52.5407 16.4495 52.2955 15.6182 51.8361 14.9111C51.3766 14.204 50.7236 13.6529 49.9596 13.3275C49.1956 13.002 48.3548 12.9169 47.5437 13.0828C46.7327 13.2487 45.9876 13.6582 45.4029 14.2595C44.8181 14.8609 44.4199 15.627 44.2585 16.461C44.0972 17.2951 44.18 18.1596 44.4965 18.9453C44.8129 19.731 45.3489 20.4025 46.0365 20.8749C46.7241 21.3474 47.5325 21.5996 48.3595 21.5996C48.9087 21.6 49.4526 21.489 49.96 21.2731C50.4675 21.0572 50.9286 20.7405 51.317 20.3411C51.7053 19.9418 52.0133 19.4676 52.2233 18.9458C52.4333 18.4239 52.5411 17.8646 52.5407 17.2999ZM36.4697 38.2578C36.0616 38.3987 35.619 38.3927 35.2146 38.2407C34.8103 38.0886 34.4683 37.7996 34.2449 37.4212C34.0214 37.0428 33.9298 36.5975 33.9852 36.1584C34.0405 35.7194 34.2394 35.3127 34.5493 35.0054L41.4604 31.105L41.1348 35.5889L36.4697 38.2578ZM16.9999 49.9652V77.1884H76.7324V67.6953L57.9017 62.1057C58.3299 62.0818 58.7411 61.9255 59.0815 61.6573C59.4933 61.3103 59.7666 60.8196 59.8492 60.2787C59.9318 59.7378 59.818 59.1845 59.5295 58.7243L52.9111 48.1502L51.594 43.1564L47.7353 46.6576L48.8254 50.6501L55.9216 61.1997C56.0545 61.3758 56.2126 61.5301 56.3905 61.6573L40.4389 56.9215C40.6133 56.8945 40.7831 56.8428 40.9437 56.768C41.2104 56.6078 41.4366 56.3853 41.6042 56.1186C41.7718 55.8518 41.876 55.5482 41.9084 55.2324L42.8193 46.4426L49.8319 40.6564L50.7219 30.7579L55.6797 39.5385C55.7811 39.7323 55.9195 39.903 56.0866 40.0404C56.2537 40.1778 56.4461 40.2791 56.6522 40.3382C56.8583 40.3972 57.0739 40.4129 57.2861 40.3842C57.4982 40.3555 57.7026 40.283 57.8868 40.1712C58.2236 39.968 58.4736 39.6419 58.5871 39.2577C58.7005 38.8735 58.6691 38.4595 58.4991 38.0981C57.167 35.2757 53.9982 28.6296 52.039 25.0516C48.6372 25.2666 44.8562 25.543 44.6561 28.3869L43.7869 40.3217L38.5723 44.7196L37.9869 54.8976C37.9743 55.1617 38.0126 55.4258 38.0998 55.6746C38.1869 55.9234 38.3211 56.152 38.4946 56.3472L16.9999 49.9652ZM19.9865 54.0469L73.7458 70.0018V74.1172H19.9865V54.0469Z" fill="#D9D9D9" stroke="#D9D9D9" stroke-width="0.00064"/>
<rect x="27.5723" y="5.69879" width="69.2624" height="45.9774" transform="rotate(16.4111 27.5723 5.69879)" fill="#FAFAFB"/>
<g clip-path="url(#clip0_88_1762)">
<path d="M49.03 20.3255C51.2134 20.9587 53.4446 19.6438 54.0506 17.4343C54.6663 15.1891 53.4223 12.9047 51.239 12.2715C49.0903 11.6484 46.8342 12.9177 46.2184 15.1628C45.6124 17.3723 46.8814 19.7024 49.03 20.3255Z" fill="#D9D9D9" stroke="#D9D9D9" stroke-width="0.5"/>
<path d="M42.0987 55.5559C35.6874 53.6966 31.9552 46.8434 33.7634 40.2505C34.7603 36.6155 37.2341 33.8705 40.3353 32.3847L41.1537 28.5825C36.2619 30.0492 32.1993 33.9492 30.7235 39.3304C28.4363 47.6695 33.1639 56.3502 41.2733 58.7021C47.2341 60.4308 53.3796 58.212 57.1134 53.6011L56.0408 49.3274C53.4017 54.4482 47.6783 57.1741 42.0987 55.5559Z" fill="#D9D9D9" stroke="#D9D9D9" stroke-width="0.5"/>
<path d="M67.1243 55.158L64.4212 54.374L61.0176 40.7297C60.7972 39.8964 60.177 39.2933 59.4243 39.0365L49.6514 36.2022L50.3782 33.1429L57.4826 35.2033C58.4726 35.4135 59.4749 34.8963 59.7486 33.8984C60.0222 32.9006 59.4748 31.8954 58.4796 31.5683L51.2019 29.4577L51.9074 25.9305C52.3454 23.7877 51.0374 21.6002 48.9189 21.1397C46.8103 20.6436 44.7079 22.0344 44.2254 24.2027L41.566 36.6273C41.1529 38.8158 42.5 40.8607 44.5447 41.4537L57.2287 45.1323L59.8956 55.8699C60.116 56.7033 60.8055 57.3265 61.6026 57.5576L61.5928 57.5933L66.1327 58.9099C67.1226 59.1201 68.125 58.6029 68.3986 57.605C68.6767 56.4546 68.1196 55.4851 67.1243 55.158Z" fill="#D9D9D9" stroke="#D9D9D9" stroke-width="0.5"/>
</g>
<circle cx="47.5" cy="47.5" r="46" stroke="#D9D9D9" stroke-width="3"/>
<defs>
<clipPath id="clip0_88_1762">
<rect width="46.1871" height="47.3" fill="white" transform="matrix(0.960424 0.278541 -0.264496 0.964387 36.5104 8)"/>
</clipPath>
</defs>
</svg>
