<svg width="95" height="95" viewBox="0 0 95 95" fill="none" xmlns="http://www.w3.org/2000/svg">
<path d="M52.5407 17.2999C52.5407 16.4495 52.2955 15.6182 51.836 14.9111C51.3766 14.204 50.7235 13.6529 49.9595 13.3275C49.1955 13.002 48.3548 12.9169 47.5437 13.0828C46.7326 13.2487 45.9876 13.6582 45.4028 14.2595C44.818 14.8609 44.4198 15.627 44.2585 16.461C44.0971 17.2951 44.1799 18.1596 44.4964 18.9453C44.8129 19.731 45.3488 20.4025 46.0364 20.8749C46.724 21.3474 47.5324 21.5996 48.3594 21.5996C48.9086 21.6 49.4525 21.489 49.96 21.2731C50.4675 21.0572 50.9286 20.7405 51.3169 20.3411C51.7052 19.9418 52.0132 19.4676 52.2232 18.9458C52.4332 18.4239 52.5411 17.8646 52.5407 17.2999ZM36.4697 38.2578C36.0615 38.3987 35.6189 38.3927 35.2146 38.2407C34.8102 38.0886 34.4682 37.7996 34.2448 37.4212C34.0213 37.0428 33.9298 36.5975 33.9851 36.1584C34.0404 35.7194 34.2394 35.3127 34.5493 35.0054L41.4603 31.105L41.1348 35.5889L36.4697 38.2578ZM16.9998 49.9652V77.1884H76.7324V67.6953L57.9017 62.1057C58.3299 62.0818 58.741 61.9255 59.0814 61.6573C59.4933 61.3103 59.7665 60.8196 59.8491 60.2787C59.9318 59.7378 59.818 59.1845 59.5294 58.7243L52.911 48.1502L51.5939 43.1564L47.7352 46.6576L48.8253 50.6501L55.9215 61.1997C56.0544 61.3758 56.2125 61.5301 56.3905 61.6573L40.4389 56.9215C40.6132 56.8945 40.783 56.8428 40.9436 56.768C41.2103 56.6078 41.4366 56.3853 41.6042 56.1186C41.7718 55.8518 41.8759 55.5482 41.9083 55.2324L42.8192 46.4426L49.8318 40.6564L50.7218 30.7579L55.6796 39.5385C55.781 39.7323 55.9194 39.903 56.0865 40.0404C56.2537 40.1778 56.4461 40.2791 56.6522 40.3382C56.8583 40.3972 57.0739 40.4129 57.286 40.3842C57.4982 40.3555 57.7025 40.283 57.8867 40.1712C58.2235 39.968 58.4735 39.6419 58.587 39.2577C58.7005 38.8735 58.6691 38.4595 58.499 38.0981C57.167 35.2757 53.9982 28.6296 52.0389 25.0516C48.6372 25.2666 44.8561 25.543 44.656 28.3869L43.7869 40.3217L38.5722 44.7196L37.9869 54.8976C37.9742 55.1617 38.0126 55.4258 38.0997 55.6746C38.1869 55.9234 38.3211 56.152 38.4946 56.3472L16.9998 49.9652ZM19.9865 54.0469L73.7457 70.0018V74.1172H19.9865V54.0469Z" fill="#005B41" stroke="#005B41" stroke-width="0.00064"/>
<rect x="27.5723" y="5.69879" width="69.2624" height="45.9774" transform="rotate(16.4111 27.5723 5.69879)" fill="#FAFAFB"/>
<g clip-path="url(#clip0_88_1763)">
<path d="M49.0302 20.3255C51.2135 20.9587 53.4447 19.6438 54.0507 17.4343C54.6665 15.1891 53.4224 12.9047 51.2391 12.2715C49.0904 11.6484 46.8343 12.9177 46.2185 15.1628C45.6126 17.3723 46.8815 19.7024 49.0302 20.3255Z" fill="#005B41" stroke="#005B41" stroke-width="0.5"/>
<path d="M42.0989 55.5559C35.6876 53.6966 31.9553 46.8434 33.7635 40.2505C34.7604 36.6155 37.2343 33.8705 40.3355 32.3847L41.1538 28.5825C36.2621 30.0492 32.1994 33.9492 30.7236 39.3304C28.4365 47.6695 33.164 56.3502 41.2734 58.7021C47.2342 60.4308 53.3797 58.212 57.1135 53.6011L56.0409 49.3274C53.4018 54.4482 47.6784 57.1741 42.0989 55.5559Z" fill="#005B41" stroke="#005B41" stroke-width="0.5"/>
<path d="M67.1245 55.158L64.4214 54.374L61.0178 40.7297C60.7974 39.8964 60.1771 39.2933 59.4245 39.0365L49.6516 36.2022L50.3784 33.1429L57.4828 35.2033C58.4727 35.4135 59.4751 34.8963 59.7487 33.8984C60.0224 32.9006 59.475 31.8954 58.4798 31.5683L51.2021 29.4577L51.9076 25.9305C52.3456 23.7877 51.0376 21.6002 48.9191 21.1397C46.8105 20.6436 44.7081 22.0344 44.2256 24.2027L41.5662 36.6273C41.1531 38.8158 42.5002 40.8607 44.5449 41.4537L57.2289 45.1323L59.8958 55.8699C60.1161 56.7033 60.8057 57.3265 61.6028 57.5576L61.593 57.5933L66.1329 58.9099C67.1228 59.1201 68.1251 58.6029 68.3988 57.605C68.6769 56.4546 68.1198 55.4851 67.1245 55.158Z" fill="#005B41" stroke="#005B41" stroke-width="0.5"/>
</g>
<circle cx="47.5" cy="47.5" r="46" stroke="#005B41" stroke-width="3"/>
<defs>
<clipPath id="clip0_88_1763">
<rect width="46.1871" height="47.3" fill="white" transform="matrix(0.960424 0.278541 -0.264496 0.964387 36.5104 8)"/>
</clipPath>
</defs>
</svg>
