<svg width="95" height="95" viewBox="0 0 95 95" fill="none" xmlns="http://www.w3.org/2000/svg">
<g clip-path="url(#clip0_44_492)">
<path d="M32.6016 37.8281C35.0625 37.8281 37.0156 35.8359 37.0156 33.4141C37.0156 30.9531 35.0625 29 32.6016 29C30.1797 29 28.1875 30.9531 28.1875 33.4141C28.1875 35.8359 30.1797 37.8281 32.6016 37.8281Z" fill="#D9D9D9" stroke="#D9D9D9" stroke-width="0.5"/>
<path d="M35.4531 75.6406C28.2266 75.6406 22.3672 69.7812 22.3672 62.5547C22.3672 58.5703 24.1641 55.0547 26.9766 52.6328L26.7422 48.5312C22.0547 51.4609 18.9297 56.6172 18.9297 62.5156C18.9297 71.6563 26.3516 79.0781 35.4922 79.0781C42.2109 79.0781 47.9922 75.0156 50.5703 69.2344L48.2266 65.2109C46.9375 71.1875 41.7422 75.6406 35.4531 75.6406Z" fill="#D9D9D9" stroke="#D9D9D9" stroke-width="0.5"/>
<path d="M61.4688 67.8672H58.4219L50.961 55.0156C50.4922 54.2344 49.6719 53.8047 48.8125 53.7656H37.7969L37.6797 50.4453H45.6875C46.7813 50.3672 47.6797 49.5469 47.6797 48.4531C47.6797 47.3594 46.8204 46.5 45.6875 46.4609H37.4844L37.211 42.6719C37.0547 40.3672 35.0625 38.5313 32.7188 38.6875C30.375 38.8047 28.5782 40.8359 28.6954 43.1797L29.4766 56.5781C29.6719 58.9219 31.6641 60.6016 33.9688 60.6016H48.2657L54.125 70.7188C54.5938 71.5 55.4922 71.9297 56.3907 71.9297V71.9688H61.5079C62.6016 71.8906 63.5 71.0703 63.5 69.9766C63.461 68.7266 62.6016 67.9063 61.4688 67.8672Z" fill="#D9D9D9" stroke="#D9D9D9" stroke-width="0.5"/>
</g>
<path d="M63.9326 40.3818L65.5802 29.4569C65.6402 29.0595 65.9818 28.7656 66.3838 28.7656H68.4092C68.9147 28.7656 69.2976 29.2226 69.209 29.7204L66.2101 46.5799C66.141 46.9676 65.804 47.25 65.4101 47.25H63.013C62.6252 47.25 62.2914 46.9759 62.216 46.5955L60.1875 36.3575L58.1832 46.5937C58.1086 46.9749 57.7744 47.25 57.3859 47.25H54.9771C54.5835 47.25 54.2465 46.9679 54.1773 46.5803L51.1667 29.721C51.0778 29.2229 51.4606 28.7656 51.9665 28.7656H54.016C54.4182 28.7656 54.7599 29.0599 54.8196 29.4577L56.4551 40.3691L58.5019 29.4287C58.5738 29.0443 58.9095 28.7656 59.3006 28.7656H61.087C61.4782 28.7656 61.8138 29.0443 61.8857 29.4289L63.9326 40.3818Z" fill="#D9D9D9" stroke="white" stroke-width="0.00066"/>
<path d="M81.2457 41.0927C81.7085 41.0927 82.0816 41.4798 82.0275 41.9395C81.8279 43.6326 81.258 44.9457 80.3175 45.8788C79.2256 46.9622 77.6853 47.5038 75.6965 47.5038C73.6059 47.5038 72.002 46.8184 70.8848 45.4472C69.7761 44.0678 69.2218 42.1041 69.2218 39.5566V36.4463C69.2218 33.9072 69.7974 31.9522 70.9484 30.5811C72.0994 29.2015 73.699 28.5117 75.7472 28.5117C77.7615 28.5117 79.2892 29.0745 80.3301 30.2002C81.231 31.1665 81.7983 32.4945 82.0318 34.1843C82.0964 34.6504 81.7208 35.0498 81.2504 35.0498H79.1668C78.7263 35.0498 78.371 34.698 78.3293 34.2596C78.2453 33.3766 78.0574 32.7429 77.7657 32.3584C77.4019 31.8591 76.729 31.6094 75.7472 31.6094C74.7484 31.6094 74.0417 31.9606 73.627 32.6631C73.2123 33.3571 72.9923 34.5038 72.9669 36.1035V39.5948C72.9669 41.4314 73.1701 42.6924 73.5763 43.3779C73.991 44.0635 74.6977 44.4062 75.6965 44.4062C76.6781 44.4062 77.3553 44.1693 77.7277 43.6953C78.0173 43.3201 78.2097 42.7119 78.3047 41.8708C78.3537 41.4377 78.7068 41.0927 79.1426 41.0927H81.2457Z" fill="#D9D9D9" stroke="white" stroke-width="0.00066"/>
<circle cx="47.5" cy="47.5" r="46" stroke="#D9D9D9" stroke-width="3"/>
<defs>
<clipPath id="clip0_44_492">
<rect width="50" height="50" fill="white" transform="translate(16 29)"/>
</clipPath>
</defs>
</svg>
